<?xml version="1.0" encoding="UTF-8"?>
<svg width="32px" height="32px" viewBox="0 0 32 32" version="1.1" xmlns="http://www.w3.org/2000/svg" xmlns:xlink="http://www.w3.org/1999/xlink">
    <title>编组 56</title>
    <defs>
        <linearGradient x1="3.84296029%" y1="54.5422155%" x2="119.688276%" y2="42.3643023%" id="linearGradient-1">
            <stop stop-color="#1650FF" offset="0%"></stop>
            <stop stop-color="#1661FF" offset="18%"></stop>
            <stop stop-color="#1677FF" offset="36%"></stop>
            <stop stop-color="#1681FF" offset="42%"></stop>
            <stop stop-color="#169BFF" offset="52%"></stop>
            <stop stop-color="#16C5FF" offset="65%"></stop>
            <stop stop-color="#16DEFF" offset="71%"></stop>
            <stop stop-color="#16FFC9" offset="100%"></stop>
        </linearGradient>
    </defs>
    <g id="页面-1" stroke="none" stroke-width="1" fill="none" fill-rule="evenodd">
        <g id="编组-56">
            <rect id="矩形" x="0" y="0" width="32" height="32"></rect>
            <g id="画板-1" transform="translate(0.000000, 10.000000)" fill-rule="nonzero">
                <path d="M24.856213,2.3112152 C24.8715991,2.31084042 24.8862976,2.31782967 24.8960779,2.33017125 C24.9058582,2.34251283 24.9096353,2.35883767 24.9063222,2.37444705 L24.8652327,2.56492324 C24.7725045,2.99351942 24.4060235,3.29803869 23.983061,3.29794431 L21.919065,3.29794431 C21.9036789,3.29831909 21.8889805,3.29132984 21.8792002,3.27898826 C21.8694199,3.26664668 21.8656427,3.25032184 21.8689558,3.23471246 L22.0506015,2.39240177 C22.0609053,2.34495091 22.101479,2.31123951 22.1483144,2.3112152 L24.856213,2.3112152 Z M21.2155325,5.60213375 L21.2155325,5.60811866 L23.4909891,5.60811866 C23.9139938,5.60811866 24.280449,5.30348225 24.3731608,4.87483737 L24.4142503,4.68436118 C24.4175113,4.66897674 24.4138875,4.65288615 24.4043946,4.64060006 C24.3949016,4.62831397 24.3805614,4.62115475 24.3653939,4.62112933 L21.5695537,4.62112933 C21.2248027,4.62112933 21.0165992,4.32995056 21.1055429,3.97189696 L21.6855563,1.63674213 C21.7745001,1.27868852 22.1272685,0.987509758 22.4720195,0.987509758 L28.2012495,0.987509758 L27.0700354,5.5428051 C27.0663495,5.55828825 27.0697031,5.57467184 27.0791346,5.58725878 C27.0885662,5.59984572 27.1030342,5.60724601 27.1183907,5.60733802 L27.9226426,5.60733802 C27.9681275,5.60706638 28.0077321,5.57501479 28.0191028,5.529274 L29.1465587,0.986989331 L31.0757611,0.986989331 C31.4987049,0.986934617 31.8650753,0.682312583 31.9576822,0.253708041 L31.9987717,0.0634920635 C32.0021112,0.0481140667 31.9985593,0.0319927732 31.989113,0.0196533937 C31.9796667,0.00731401416 31.9653442,8.66477989e-05 31.9501658,0 L22.7170533,0 C21.8484111,0 20.9594747,0.734061931 20.7352363,1.6362217 L20.1554734,3.97059589 C19.9407556,4.83528493 20.4130344,5.5428051 21.2155325,5.60213375 Z M4.16764694,1.84907624 C4.16368764,1.86466881 4.16691157,1.88128677 4.17637592,1.89407026 C4.18584026,1.90685375 4.20047574,1.91435851 4.21600228,1.9143898 L5.02426292,1.9143898 C5.06984112,1.91423609 5.10957921,1.88215985 5.12097358,1.83632579 L5.17233546,1.6362217 C5.40383975,0.734061931 4.88571111,0 4.01706894,0 L2.65009124,0 C1.78144907,0 0.886249048,0.734061931 0.654494214,1.6362217 L0.64823057,1.66068176 C0.416726283,2.56310174 0.934854926,3.29690346 1.8034971,3.29690346 L3.17172752,3.29690346 C3.5164785,3.29690346 3.72292821,3.58834244 3.63022628,3.9474369 L3.62396263,3.97215717 C3.53201234,4.33021077 3.17673844,4.62269061 2.83198747,4.62269061 L1.46400758,4.62269061 C1.11925661,4.62269061 0.912806899,4.33151184 1.00550883,3.97215717 L1.05987726,3.76034348 C1.06383657,3.74475091 1.06061263,3.72813296 1.05114829,3.71534947 C1.04168395,3.70256598 1.02704846,3.69506122 1.01152193,3.69502992 L0.20326129,3.69502992 C0.157683082,3.69518364 0.117944996,3.72725988 0.106550624,3.77309394 L0.0551887425,3.97319802 C-0.176315545,4.87535779 0.341813099,5.60941972 1.21045527,5.60941972 L2.57743297,5.60941972 C3.44607514,5.60941972 4.34127516,4.87535779 4.57302999,3.97319802 L4.57929364,3.94847775 C4.81079792,3.04631798 4.29266928,2.31251626 3.42402711,2.31251626 L2.30709409,2.31251626 C1.96259366,2.31251626 1.50660036,2.02107728 1.59855066,1.66198283 L1.6048143,1.63752277 C1.6967646,1.27946916 2.0520385,0.988290398 2.39678947,0.988290398 L3.76351662,0.988290398 C4.1082676,0.988290398 4.31471731,1.27946916 4.22201537,1.63752277 L4.16764694,1.84907624 Z M9.34993556,4.86338798 L9.48472919,4.69242779 L10.1499282,3.84855582 L10.9707161,2.80431954 L12.0205029,1.46994536 L12.1152092,1.34894614 L12.1863642,1.25839188 C12.3316807,1.11683581 12.5198406,1.03096539 12.7024885,1.03096539 L13.9386813,1.03096539 C14.2661446,1.03096539 14.4663306,1.30809264 14.3846527,1.64819152 L14.3262756,1.88862868 C14.3226795,1.90407486 14.3260755,1.92038099 14.3354963,1.93290296 C14.3449172,1.94542493 14.3593304,1.95279031 14.3746309,1.95290138 L15.2249832,1.95290138 C15.270281,1.9523951 15.3096198,1.9203925 15.3209423,1.87483737 L15.3753107,1.64819152 C15.5937866,0.740307052 15.0601241,0.00156128025 14.1859699,0.00156128025 L12.9505288,0.00156128025 C12.316648,0.0010408535 11.6587148,0.387717929 11.2608481,0.986208691 L10.652523,1.75904241 L9.83223616,2.8035389 L8.9575809,3.91673172 L8.69826603,4.24590164 C8.54643529,4.45120999 8.31392882,4.57845433 8.09094309,4.57845433 L6.557603,4.57845433 C6.2296386,4.57845433 6.02995362,4.30184751 6.11163154,3.96096799 L6.27298301,3.29352069 L8.26582404,3.29352069 C8.68493373,3.29359388 9.04802544,2.99173926 9.13972767,2.56700494 L9.18056663,2.37835025 C9.18363734,2.36313088 9.17999449,2.34728276 9.17063552,2.33514523 C9.16127655,2.3230077 9.14718208,2.31585251 9.13221129,2.31563882 L6.50849603,2.31563882 L6.62449872,1.83476451 C6.74000032,1.36143638 7.2385864,1.03044496 7.66025492,1.03044496 L10.4876639,1.03044496 C10.5032422,1.03009509 10.5178613,1.02255785 10.527548,1.00988169 C10.5372347,0.99720553 10.5409825,0.980707432 10.537773,0.964871194 L10.4944286,0.765807963 C10.398031,0.318803388 10.015986,0.0010408535 9.57492566,0.0010408535 L7.66025492,0.0010408535 C7.53251036,0.00132595384 7.40519591,0.0164251464 7.28067808,0.0460577674 C7.18975283,0.0675325068 7.10041597,0.0957068528 7.01334575,0.130366901 C6.97851989,0.143637783 6.94419512,0.158730159 6.91037144,0.174863388 C6.81914386,0.216528418 6.73096778,0.265057171 6.64654675,0.320062451 C6.18103272,0.619828259 5.80872171,1.10330471 5.67743573,1.64715066 L5.12097358,3.96122821 C4.90249767,4.8696331 5.43565906,5.60811866 6.31031433,5.60811866 L7.84290278,5.60811866 C8.38458273,5.60811866 8.94705797,5.326828 9.34993556,4.86338798 Z M13.9775159,3.65781941 C13.9321245,3.65820857 13.892653,3.69023561 13.8813063,3.73588342 L13.8269379,3.96226906 C13.7455105,4.30314858 13.4117835,4.5797554 13.0838191,4.5797554 L11.7980182,4.5797554 C11.5547383,4.5797554 11.4176898,4.44834765 11.3395195,4.19568046 L11.0486359,3.31746032 C11.0425999,3.29985803 11.0279413,3.28696744 11.0102297,3.28368647 C10.9925182,3.2804055 10.9744725,3.28723778 10.9629492,3.3015873 L10.2909855,4.15638824 C10.2697917,4.18340288 10.2630203,4.21964033 10.2729462,4.2529274 L10.3836874,4.61722613 C10.4899188,5.2217018 10.9631998,5.60994015 11.5998365,5.60994015 L12.8360294,5.60994015 C13.7101835,5.60994015 14.599621,4.87145459 14.8180969,3.9630497 L14.8754719,3.72287276 C14.8790494,3.7075144 14.8757147,3.69129974 14.8664078,3.67879965 C14.8571009,3.66629956 14.8428298,3.65886805 14.8276176,3.65860005 L13.9775159,3.65781941 Z M19.2297067,5.6094534 L18.4114243,5.6094534 C18.3954769,5.61001519 18.3802101,5.60268633 18.370314,5.58968475 C18.3604179,5.57668317 18.357076,5.55956365 18.3613151,5.54358574 L18.66197,4.32760864 C18.7398898,4.01379131 18.6912839,3.8035389 18.5091371,3.6653656 C18.295171,3.50325267 17.9724681,3.48555816 17.8421843,3.48529794 L16.5007623,3.48529794 C16.454625,3.48473553 16.4140803,3.516962 16.4025483,3.56336196 L15.9139841,5.52979443 C15.9024745,5.57609932 15.8620649,5.60830048 15.8160207,5.60785844 L14.9974877,5.60785844 C14.9815403,5.60845391 14.9662734,5.60112505 14.9563774,5.58812347 C14.9464813,5.57512189 14.9431394,5.55800237 14.9473785,5.54202446 L16.3055871,0.0806661462 C16.3164885,0.0338357026 16.3569105,0.000896144054 16.4033,0.00104037858 L19.0387909,0.00104037858 C19.4865162,0.00104037858 19.8620843,0.183190216 20.0975973,0.511319282 C20.3331103,0.839448348 20.3982522,1.27738746 20.2830011,1.74290919 C20.1594821,2.24043716 19.8460493,2.68930523 19.4439234,3.00702576 L19.4341521,3.01405152 C19.6431073,3.2742649 19.7849162,3.68462139 19.6265712,4.32630757 L19.3276701,5.529274 C19.3164524,5.57588912 19.2759693,5.60847143 19.2297067,5.60811866 L19.2297067,5.6094534 Z M19.3209054,1.74421025 C19.3710146,1.54592766 19.3422018,1.35909446 19.2419835,1.21935988 C19.1417652,1.07962529 18.9816664,1.00156128 18.7910011,1.00156128 L17.0782703,1.00156128 C17.054684,1.00084759 17.0338142,1.01732067 17.0281611,1.04111371 L16.685164,2.4202446 C16.6810206,2.43618683 16.6844079,2.45322523 16.6942918,2.46615951 C16.7041757,2.47909379 16.7193833,2.48638893 16.7352731,2.48581837 L18.4221977,2.48581837 C18.8160557,2.48477752 19.2191838,2.15196461 19.3209054,1.74290919 L19.3209054,1.74421025 Z" id="形状" fill="url(#linearGradient-1)"></path>
                <path d="M23.7553149,7.99739787 L23.1555084,10.3931824 C22.9340259,11.2779079 22.0603728,11.9984387 21.2080161,11.9984387 L19.6533796,11.9984387 C18.801524,11.9984387 18.2879052,11.2784283 18.5096382,10.3931824 L19.1089437,7.99739787 C19.3304261,7.11267239 20.2040792,6.39162113 21.0566865,6.39162113 L22.6100702,6.39162113 C23.4636796,6.39162113 23.9767974,7.11189175 23.7553149,7.99739787 Z M22.3655376,7.37288577 L20.8121538,7.37288577 C20.4811829,7.37288577 20.1419439,7.65261514 20.0560067,7.99739787 L19.4567012,10.3931824 C19.3705135,10.7364039 19.5696974,11.0161332 19.9006683,11.0161332 L21.4540521,11.0161332 C21.7845219,11.0161332 22.1235103,10.7364039 22.2096981,10.3931824 L22.8095047,7.99739787 C22.8951913,7.653656 22.6960074,7.37392662 22.3655376,7.37392662 L22.3655376,7.37288577 Z M29.8859193,6.39058028 L29.0814168,6.39058028 C29.035932,6.39085191 28.9963273,6.4229035 28.9849567,6.46864429 L27.9988086,10.4103565 C27.9151263,10.7442103 27.5856586,11.015873 27.2639578,11.015873 L27.231888,11.015873 C26.9104377,11.015873 26.7167659,10.7442103 26.8004482,10.4103565 L27.8061389,6.39136092 L26.860078,6.39136092 L26.840786,6.46942493 L26.840786,6.46942493 L25.8546379,10.4111371 C25.7709556,10.7442103 25.4414879,11.0161332 25.1195366,11.0161332 L25.0874668,11.0161332 C24.7660165,11.0161332 24.5723447,10.7444705 24.6557764,10.4106167 L25.6454322,6.45537341 C25.6492085,6.43985353 25.6458978,6.42339215 25.6364554,6.41073997 C25.6270131,6.39808779 25.6124897,6.39065264 25.5970768,6.39058028 L24.7938271,6.39058028 C24.7483423,6.39085191 24.7087376,6.4229035 24.697367,6.46864429 L23.7109683,10.4103565 C23.4919913,11.2857143 23.999597,11.9976581 24.8426835,11.9976581 L24.8747534,11.9976581 C25.2843957,11.9976581 25.6982973,11.8285194 26.041545,11.5552953 C26.2479947,11.8285194 26.5772119,11.9976581 26.9868542,11.9976581 L27.0189241,11.9976581 C27.8620106,11.9976581 28.7261429,11.2851939 28.9453705,10.4103565 L29.9347757,6.45511319 C29.9381246,6.43969081 29.9345419,6.42352357 29.9250385,6.41117332 C29.9155352,6.39882307 29.9011416,6.39162903 29.8859193,6.39162113 L29.8859193,6.39058028 Z M18.1378283,11.7509758 C17.9969187,11.5603103 17.9023775,11.337153 17.862228,11.1004424 C17.8536155,11.0516157 17.8125603,11.0162108 17.7647657,11.0163934 L15.1728697,11.0163934 C14.8298726,11.0163934 14.621669,10.7262555 14.7083579,10.3702836 L15.672458,6.42883164 C15.6761439,6.41334849 15.6727903,6.3969649 15.6633587,6.38437796 C15.6539272,6.37179102 15.6394592,6.36439073 15.6241026,6.36429872 L14.8198507,6.36429872 C14.7742725,6.36445244 14.7345344,6.39652868 14.7231401,6.44236274 L13.7625476,10.3715847 C13.5430695,11.2695811 14.0677123,12 14.9325963,12 L18.2398004,12 C18.2600175,11.9995026 18.2779652,11.9864325 18.2853055,11.9668618 C18.2926457,11.9472911 18.2879396,11.9250561 18.2733736,11.9104866 C18.2245169,11.8610886 18.1792137,11.8080363 18.1378283,11.7517564 L18.1378283,11.7509758 Z M13.6104663,8.69086651 L10.501945,8.69086651 L10.6926103,7.92844132 C10.7367654,7.77251449 10.8188207,7.6310162 10.9308793,7.5175644 C11.0372473,7.42582112 11.1706997,7.37475247 11.3089529,7.37288577 L13.3065543,7.37288577 C13.7271728,7.37231108 14.0913081,7.06922213 14.1834645,6.64298725 L14.2243034,6.45355191 C14.2274601,6.43829417 14.2238575,6.42237049 14.2144885,6.41016951 C14.2051195,6.39796853 14.1909731,6.39077822 14.1759481,6.39058028 L11.405413,6.39058028 C11.0651719,6.39058028 10.7106496,6.52823315 10.4074892,6.77803799 C10.1043289,7.02784283 9.88885951,7.36039552 9.80041685,7.71480614 L8.74461699,11.9336456 C8.74085078,11.9491214 8.74413115,11.9655364 8.75351626,11.9781773 C8.76290136,11.9908183 8.777353,11.9982869 8.79272178,11.9984387 L9.59722424,11.9984387 C9.64270904,11.9981671 9.68231372,11.9661155 9.69368436,11.9203747 L10.2561596,9.67239136 L12.7400703,9.67239136 C13.1603468,9.67205112 13.5244051,9.36956636 13.6169805,8.94379391 L13.65807,8.75435857 C13.6613763,8.73915612 13.6579483,8.72321492 13.6487285,8.71091795 C13.6395088,8.69862098 13.6254679,8.6912628 13.6104663,8.69086651 Z" id="形状" fill="#001982"></path>
            </g>
        </g>
    </g>
</svg>